<svg xmlns="http://www.w3.org/2000/svg" viewBox="0 0 192 192">
  <defs>
    <linearGradient id="g" x1="0" x2="1" y1="0" y2="1">
      <stop stop-color="#6b4cff" offset="0"/>
      <stop stop-color="#ff8a3d" offset="1"/>
    </linearGradient>
  </defs>
  <rect width="192" height="192" rx="42" fill="url(#g)"/>
  <circle cx="96" cy="78" r="42" fill="#fff6d6"/>
  <path d="M54 124c10-22 32-32 42-12 10-20 32-10 42 12 6 14-7 34-42 34s-48-20-42-34z" fill="#ffffff"/>
  <text x="96" y="88" text-anchor="middle" font-size="44" font-family="Arial" font-weight="900" fill="#32205f">K</text>
  <path d="M69 50c-18-12-28-5-26 12 16 2 25-1 26-12zm54 0c18-12 28-5 26 12-16 2-25-1-26-12z" fill="#ffcc4d"/>
</svg>
